[img]http://img811.imageshack.us/img811/4250/gijoeriseofcobra320x200.jpg[/img]
 
http://www.imdb.com/title/tt1046173/

Source: G.I.Joe.Rise.Of.The.Cobra.720p.BluRay.x264-METiS 

Subs: Arabic, Brazilian, Bulgarian, Croatian, Czech, Danish, Dutch, English, Estonian, Farsi-Persian, Finnish, French, Greek, Hebrew, Hungarian, Indonesian, Korean, Macedonian, Norwegian, Polish, Portuguese, Romanian, Serbian, Slovenian, Spanish, Swedish, Turkish and Vietnamese.

Sample and Screens included.

General
Complete name                    : G.I. Joe Rise Of Cobra-720p MP4 AAC BRRip 2009-CC.mp4
Format                           : MPEG-4
Format profile                   : Base Media
Codec ID                         : isom
File size                        : 2.00 GiB
Duration                         : 1h 57mn
Overall bit rate                 : 2 427 Kbps
Encoded date                     : UTC 2012-02-12 07:36:31
Tagged date                      : UTC 2012-02-12 07:36:31
Writing application              : Yamb 2.1.0.0

Video
ID                               : 1
Format                           : AVC
Format/Info                      : Advanced Video Codec
Format profile                   : High@L3.1
Format settings, CABAC           : Yes
Format settings, ReFrames        : 5 frames
Codec ID                         : avc1
Codec ID/Info                    : Advanced Video Coding
Duration                         : 1h 57mn
Bit rate mode                    : Variable
Bit rate                         : 2 018 Kbps
Maximum bit rate                 : 12.9 Mbps
Width                            : 1 280 pixels
Height                           : 528 pixels
Display aspect ratio             : 2.35:1
Original display aspect ratio    : 2.35:1
Frame rate mode                  : Variable
Frame rate                       : 23.976 fps
Minimum frame rate               : 19.048 fps
Maximum frame rate               : 24.390 fps
Color space                      : YUV
Chroma subsampling               : 4:2:0
Bit depth                        : 8 bits
Scan type                        : Progressive
Bits/(Pixel*Frame)               : 0.125
Stream size                      : 1.63 GiB (81%)
Writing library                  : x264 core 112
Encoding settings                : cabac=1 / ref=5 / deblock=1:0:0 / analyse=0x3:0x113 / me=hex / subme=7 / psy=1 / psy_rd=1.00:0.00 / mixed_ref=1 / me_range=16 / chroma_me=1 / trellis=1 / 8x8dct=1 / cqm=0 / deadzone=21,11 / fast_pskip=1 / chroma_qp_offset=-2 / threads=3 / sliced_threads=0 / nr=0 / decimate=1 / interlaced=0 / constrained_intra=0 / bframes=5 / b_pyramid=2 / b_adapt=2 / b_bias=0 / direct=1 / weightb=1 / open_gop=0 / weightp=2 / keyint=240 / keyint_min=23 / scenecut=40 / intra_refresh=0 / rc_lookahead=50 / rc=abr / mbtree=1 / bitrate=2018 / ratetol=1.0 / qcomp=0.60 / qpmin=3 / qpmax=51 / qpstep=4 / ip_ratio=1.40 / aq=1:1.00
Encoded date                     : UTC 2012-02-12 23:12:11
Tagged date                      : UTC 2012-02-12 07:40:20
Color primaries                  : BT.709-5, BT.1361, IEC 61966-2-4, SMPTE RP177
Transfer characteristics         : BT.709-5, BT.1361
Matrix coefficients              : BT.709-5, BT.1361, IEC 61966-2-4 709, SMPTE RP177

Audio
ID                               : 2
Format                           : AAC
Format/Info                      : Advanced Audio Codec
Format version                   : Version 4
Format profile                   : LC
Format settings, SBR             : No
Codec ID                         : 40
Duration                         : 1h 57mn
Bit rate mode                    : Variable
Bit rate                         : 447 Kbps
Maximum bit rate                 : 884 Kbps
Channel(s)                       : 6 channels
Channel positions                : Front: L C R, Side: L R, LFE
Sampling rate                    : 48.0 KHz
Stream size                      : 377 MiB (18%)
Language                         : English
Encoded date                     : UTC 2012-02-12 07:39:22
Tagged date                      : UTC 2012-02-12 07:40:20

Enjoy...

[img]http://img171.imageshack.us/img171/7130/gijoeriseofcobra720pmp4.png[/img]

[img]http://img823.imageshack.us/img823/7130/gijoeriseofcobra720pmp4.png[/img]

[img]http://img252.imageshack.us/img252/7130/gijoeriseofcobra720pmp4.png[/img]

[img]http://img846.imageshack.us/img846/7130/gijoeriseofcobra720pmp4.png[/img]

[img]http://img819.imageshack.us/img819/7130/gijoeriseofcobra720pmp4.png[/img]

[img]http://img443.imageshack.us/img443/683/gijoeriseofcobra720pmp4w.png[/img]

[img]http://img194.imageshack.us/img194/7130/gijoeriseofcobra720pmp4.png[/img]